<?xml version="1.0" encoding="utf-8"?>
<!-- Generator: Adobe Illustrator 22.0.1, SVG Export Plug-In . SVG Version: 6.00 Build 0)  -->
<svg version="1.1" id="Layer_1" xmlns="http://www.w3.org/2000/svg" xmlns:xlink="http://www.w3.org/1999/xlink" x="0px" y="0px"
	 viewBox="0 0 350 350" style="enable-background:new 0 0 350 350;" xml:space="preserve">
<style type="text/css">
	.st0{fill:#C7EDEF;}
</style>
<g>
	<circle class="st0" cx="175" cy="175" r="135"/>
	<path d="M214.8,176.2c0-1.9,0-3.9,0-5.8c-0.1-2.8-2.3-5-5.1-5.1c-1.5,0-3-0.1-4.4,0c-0.8,0-1-0.2-1-1c0-2.4,0-4.8,0-7.2
		c-0.1-4,0.2-7.9-0.3-11.9c-2.6-18.4-22.1-29.8-39.4-23.1c-11.5,4.5-18.8,15.1-18.8,27.7c0,4.8,0,9.5,0,14.3c0,0.9-0.2,1.2-1.1,1.1
		c-1.1-0.1-2.3,0-3.4,0c-4,0-6.1,2.1-6.1,6.1c0,17.4,0,34.8,0,52.2c0,4,2.1,6.1,6.1,6.1c11.2,0,22.5,0,33.7,0s22.4-0.1,33.6,0.1
		c3.6,0,6.4-2.2,6.4-6.4C214.8,207.7,214.8,192,214.8,176.2z M192.3,165.3c-5.8,0-11.6,0-17.3,0c-5.8,0-11.6,0-17.3,0
		c-0.9,0-1.2-0.2-1.2-1.2c0.1-4.9,0-9.8,0-14.7c0.1-9.5,7.4-17.6,16.5-18.4c9.8-0.8,18.4,5.6,20.1,15.1c0.2,1.1,0.3,2.2,0.3,3.3
		c0,4.9,0,9.8,0,14.7C193.5,165.1,193.2,165.3,192.3,165.3z"/>
</g>
</svg>
