<?xml version="1.0" encoding="utf-8"?>
<!-- Generator: Adobe Illustrator 22.0.1, SVG Export Plug-In . SVG Version: 6.00 Build 0)  -->
<svg version="1.1" id="Layer_1" xmlns="http://www.w3.org/2000/svg" xmlns:xlink="http://www.w3.org/1999/xlink" x="0px" y="0px"
	 viewBox="0 0 250 250" style="enable-background:new 0 0 250 250;" xml:space="preserve">
<style type="text/css">
	.st0{fill:#FFFFFF;}
	.st1{opacity:0.5;fill:#5A66AF;}
	.st2{opacity:0.5;fill:#8759B2;}
	.st3{opacity:0.5;fill:#AF5A91;}
	.st4{opacity:0.5;fill:#AD5A5A;}
</style>
<g>
	<path class="st0" d="M232.5,125c0,34.8-16.5,65.7-42.2,85.4c-3.6,2.8-7.4,5.3-11.3,7.6c-14.3,8.3-30.8,13.5-48.3,14.4
		c-1.9,0.1-3.8,0.1-5.7,0.1c-1.9,0-3.8,0-5.7-0.1c-17.6-0.9-34-6-48.3-14.4c-4-2.3-7.7-4.8-11.3-7.6C34,190.7,17.5,159.8,17.5,125
		c0-34.8,16.5-65.7,42.2-85.4C63.3,36.9,67,34.3,71,32c14.3-8.4,30.8-13.5,48.3-14.4c1.9-0.1,3.8-0.2,5.7-0.2c1.9,0,3.8,0,5.7,0.2
		c17.6,0.9,34,6,48.3,14.4c3.9,2.3,7.7,4.8,11.3,7.6C216,59.3,232.5,90.2,232.5,125z"/>
</g>
<path class="st1" d="M71,32V218c-4-2.3-7.7-4.8-11.3-7.6C34,190.7,17.5,159.8,17.5,125c0-34.8,16.5-65.7,42.2-85.4
	C63.3,36.9,67,34.3,71,32z"/>
<path class="st2" d="M130.7,17.7v214.7c-1.9,0.1-3.8,0.1-5.7,0.1c-1.9,0-3.8,0-5.7-0.1c-17.6-0.9-34-6-48.3-14.4
	c-4-2.3-7.7-4.8-11.3-7.6V39.6C63.3,36.9,67,34.3,71,32c14.3-8.4,30.8-13.5,48.3-14.4c1.9-0.1,3.8-0.2,5.7-0.2
	C126.9,17.5,128.8,17.6,130.7,17.7z"/>
<path class="st3" d="M190.3,39.6v170.7c-3.6,2.8-7.4,5.3-11.3,7.6c-14.3,8.3-30.8,13.5-48.3,14.4c-1.9,0.1-3.8,0.1-5.7,0.1
	c-1.9,0-3.8,0-5.7-0.1V17.7c1.9-0.1,3.8-0.2,5.7-0.2c1.9,0,3.8,0,5.7,0.2c17.6,0.9,34,6,48.3,14.4C182.9,34.3,186.7,36.9,190.3,39.6
	z"/>
<path class="st4" d="M232.5,125c0,34.8-16.5,65.7-42.2,85.4c-3.6,2.8-7.4,5.3-11.3,7.6V32c3.9,2.3,7.7,4.8,11.3,7.6
	C216,59.3,232.5,90.2,232.5,125z"/>
</svg>
